:SAMPLES-PER-SECOND 24
:FULLY-SPECIFIED
:DEGREES
523
root  3.55329 40.2519 43.126 -74.7354 -56.9524 64.5374
RightUpLeg  -6.64181 14.5746 -28.7266
RightLeg  30.7938 -2.07202 -1.57025
RightFoot  -8.00826 0.0121746 -2.28008
RightToes  -2.08645e-008 3.77894e-005 6.81332e-007
Spine  32.2423 0.993804 11.0856
Spine1  -3.31446 7.80919 -25.4878
HEad  -20.8116 39.0752 -19.1068
LeftShoulder1  7.59317 -13.6014 -38.2708
LeftArm  14.2162 16.3998 -15.55
LeftForeArm  169.334 -68.2413 -155.537
LeftHand  -0.244016 -3.48556 3.44507
RightShoulder  3.16726 6.37635 26.0211
RightArm  13.9188 48.0706 37.8512
RightForeArm  21.4092 38.4667 7.56774
RightHand  -1.67663 8.69358 -14.1031
LeftUpLeg  -81.6154 19.0162 2.28617
LeftLeg  109.297 1.28401 -4.06631
LeftFoot  -15.1739 -0.234206 -9.69186
LeftToes  1.24767e-006 1.47042e-008 1.32732e-009
524
root  3.38938 41.7525 43.1535 -70.1318 -52.4932 61.6906
RightUpLeg  -3.57758 14.0207 -31.7642
RightLeg  23.6447 -9.60889 -4.77073
RightFoot  1.44305 0.156832 -1.25778
RightToes  -2.08645e-008 3.77894e-005 6.81332e-007
Spine  30.9492 1.19882 11.0034
Spine1  -4.7349 7.84882 -28.415
HEad  -17.8934 37.73 -17.2201
LeftShoulder1  7.39869 -13.4391 -37.5758
LeftArm  15.4667 17.1351 -16.1543
LeftForeArm  173.866 -66.4001 -158.056
LeftHand  -0.00800921 -4.30875 0.378244
RightShoulder  2.95982 6.10146 24.723
RightArm  16.966 44.5121 35.5639
RightForeArm  22.8719 41.7058 8.47427
RightHand  -1.47596 8.47143 -12.6573
LeftUpLeg  -83.4178 23.6312 5.00765
LeftLeg  101.95 -0.159996 -0.473379
LeftFoot  -14.5368 -0.203706 -10.3732
LeftToes  1.24767e-006 1.47042e-008 1.32732e-009
525
root  3.20831 42.7809 43.0729 -61.8293 -50.2441 57.0664
RightUpLeg  -3.93822 8.66244 -31.5132
RightLeg  20.026 -15.2344 -6.32607
RightFoot  7.95361 -0.0372689 0.479904
RightToes  -2.08645e-008 3.77894e-005 6.81332e-007
Spine  27.6291 1.3976 10.5396
Spine1  -6.90756 6.96641 -28.6253
HEad  -16.0621 38.2025 -16.3431
LeftShoulder1  7.1157 -13.1582 -36.6434
LeftArm  15.8646 18.5096 -17.636
LeftForeArm  174.659 -65.2349 -159.246
LeftHand  0.119488 -4.82968 -1.06297
RightShoulder  2.91713 6.09209 24.2864
RightArm  19.3056 38.9635 32.9493
RightForeArm  21.7819 46.0455 10.0808
RightHand  -1.16066 7.84894 -10.4925
LeftUpLeg  -85.8306 28.5807 8.70759
LeftLeg  89.0863 -0.318886 3.92042
LeftFoot  -14.9495 -0.244951 -10.6304
LeftToes  1.24767e-006 1.47042e-008 1.32732e-009
526
root  2.93713 43.0138 42.9312 -54.9451 -48.7424 52.1811
RightUpLeg  -4.31489 5.92126 -28.4783
RightLeg  21.5331 -8.3012 -3.7769
RightFoot  6.8116 -0.901556 6.0338
RightToes  -2.08645e-008 3.77894e-005 6.81332e-007
Spine  25.0018 2.3508 6.85502
Spine1  -8.27552 5.82108 -23.8389
HEad  -17.1856 39.3505 -16.5698
LeftShoulder1  6.74717 -12.7524 -35.4741
LeftArm  15.2586 17.8342 -19.3377
LeftForeArm  172.514 -64.4293 -159.731
LeftHand  0.12062 -4.50194 -1.12982
RightShoulder  3.05129 6.32905 24.9477
RightArm  19.7411 33.271 28.9333
RightForeArm  21.2687 50.6646 12.0769
RightHand  -0.992573 7.12797 -9.52428
LeftUpLeg  -84.7342 34.0036 13.0129
LeftLeg  71.0318 2.21653 7.99624
LeftFoot  -11.2323 0.0744216 -10.1158
LeftToes  1.24767e-006 1.47042e-008 1.32732e-009
527
root  2.56213 42.558 42.7354 -51.0181 -45.2396 47.798
RightUpLeg  -2.44155 8.94565 -25.1597
RightLeg  24.8211 -0.631691 -0.538067
RightFoot  3.32926 -0.660896 5.30678
RightToes  -2.08645e-008 3.77894e-005 6.81332e-007
Spine  22.7641 3.18408 -0.300306
Spine1  -6.07662 4.61229 -17.286
HEad  -21.7439 39.8173 -17.6618
LeftShoulder1  6.46847 -12.5058 -34.3917
LeftArm  13.1029 13.5221 -19.7801
LeftForeArm  170.065 -63.7757 -160.034
LeftHand  0.0756281 -3.72904 -0.705566
RightShoulder  3.2421 6.5931 26.075
RightArm  17.295 27.7485 25.1198
RightForeArm  22.6689 53.7049 13.4854
RightHand  -0.979379 6.63064 -9.76622
LeftUpLeg  -77.8569 36.447 17.3892
LeftLeg  49.314 6.53051 8.51069
LeftFoot  -4.44066 0.629511 -9.98297
LeftToes  1.24767e-006 1.47042e-008 1.32732e-009
528
root  2.19371 41.8489 42.7142 -49.3711 -40.1365 45.6126
RightUpLeg  0.764347 9.71283 -24.4983
RightLeg  25.9405 -3.39226 -2.00666
RightFoot  -0.753308 0.26278 -3.00974
RightToes  -2.08645e-008 3.77894e-005 6.81332e-007
Spine  21.1169 3.07203 -6.42179
Spine1  -3.31828 3.24284 -14.4679
HEad  -25.4521 39.9912 -17.9046
LeftShoulder1  6.0773 -12.1603 -32.7965
LeftArm  10.4893 6.60574 -19.5644
LeftForeArm  167.533 -64.4155 -159.219
LeftHand  -0.00816898 -3.26862 0.346464
RightShoulder  3.37377 6.73058 26.9651
RightArm  14.5798 21.6675 23.0501
RightForeArm  22.9702 54.4387 13.8639
RightHand  -0.998049 6.43393 -10.1
LeftUpLeg  -65.2326 32.6362 26.4403
LeftLeg  29.6284 11.7544 7.38222
LeftFoot  -1.62499 0.776386 -8.99944
LeftToes  1.24767e-006 1.47042e-008 1.32732e-009
529
root  2.1462 41.0478 42.9057 -48.9385 -36.3005 45.9312
RightUpLeg  2.31239 6.81651 -27.2087
RightLeg  25.9714 -8.05484 -4.47467
RightFoot  -6.9973 0.288954 -8.67315
RightToes  -2.08645e-008 3.77894e-005 6.81332e-007
Spine  21.7019 2.52357 -8.35982
Spine1  -3.93482 2.34723 -16.465
HEad  -26.4428 41.0425 -18.1065
LeftShoulder1  5.84954 -11.7485 -32.3633
LeftArm  8.21937 -1.15747 -19.1933
LeftForeArm  166.214 -66.7832 -156.775
LeftHand  -0.0815194 -3.22033 1.33723
RightShoulder  3.44385 6.65854 27.9223
RightArm  13.5245 15.1082 20.9648
RightForeArm  22.4553 53.405 13.3178
RightHand  -1.01813 6.60671 -10.1562
LeftUpLeg  -51.9911 18.6865 43.7799
LeftLeg  22.0115 20.7027 9.34062
LeftFoot  -1.01335 0.491738 -5.38869
LeftToes  1.24767e-006 1.47042e-008 1.32732e-009
530
root  2.42884 40.3177 43.2245 -49.2375 -34.702 47.1296
RightUpLeg  1.37808 5.52257 -30.021
RightLeg  27.899 -7.70413 -4.6147
RightFoot  -12.6512 -0.180309 -8.76638
RightToes  -2.08645e-008 3.77894e-005 6.81332e-007
Spine  23.7784 2.20078 -7.3235
Spine1  -5.36753 2.10491 -19.3774
HEad  -29.4245 42.8703 -21.9215
LeftShoulder1  6.31336 -12.0703 -34.5216
LeftArm  5.59069 -6.70572 -18.8338
LeftForeArm  166.873 -69.372 -153.815
LeftHand  -0.102886 -3.54629 1.59003
RightShoulder  3.49811 6.5277 28.9346
RightArm  11.9745 8.30623 19.1055
RightForeArm  22.6912 48.9675 11.1363
RightHand  -1.04456 7.18907 -9.95741
LeftUpLeg  -46.0658 3.70782 55.2459
LeftLeg  24.9071 20.5462 10.3515
LeftFoot  -0.154087 0.181088 -1.85599
LeftToes  1.24767e-006 1.47042e-008 1.32732e-009
531
root  2.66341 39.9597 43.4027 -47.3584 -33.739 46.2213
RightUpLeg  -0.183574 5.58591 -29.994
RightLeg  29.9945 -9.35383 -6.0181
RightFoot  -14.5408 -0.350479 -9.01689
RightToes  -2.08645e-008 3.77894e-005 6.81332e-007
Spine  23.4219 1.4119 -5.9025
Spine1  -3.92122 1.97958 -20.3065
HEad  -35.2955 45.2239 -28.5496
LeftShoulder1  6.97788 -12.7809 -36.7866
LeftArm  3.94677 -7.2423 -19.7577
LeftForeArm  166.321 -70.7521 -151.813
LeftHand  -0.150351 -3.48387 2.21859
RightShoulder  3.59371 6.57728 29.729
RightArm  9.50788 2.13674 20.621
RightForeArm  19.8861 36.9561 7.22763
RightHand  -1.10958 7.64572 -10.202
LeftUpLeg  -43.272 -1.91787 55.9713
LeftLeg  24.2975 14.3376 7.28082
LeftFoot  0.894019 0.271088 -2.58081
LeftToes  1.24767e-006 1.47042e-008 1.32732e-009
532
root  2.66522 40.0409 43.2381 -42.3105 -31.9449 43.1103
RightUpLeg  -1.08542 3.72969 -28.4497
RightLeg  29.0055 -13.1812 -8.00896
RightFoot  -13.4528 -0.272292 -9.79541
RightToes  -2.08645e-008 3.77894e-005 6.81332e-007
Spine  21.0437 -0.0887482 -5.35275
Spine1  -2.30861 1.08861 -19.8496
HEad  -38.0254 48.4488 -33.0159
LeftShoulder1  7.2994 -13.1299 -37.7849
LeftArm  5.31267 -3.6678 -21.911
LeftForeArm  164.2 -71.2396 -150.763
LeftHand  -0.205257 -2.96961 3.07489
RightShoulder  3.77108 6.74387 30.8988
RightArm  3.66584 -2.65508 23.6669
RightForeArm  16.0901 17.0608 5.27532
RightHand  -1.20708 7.80636 -10.9379
LeftUpLeg  -40.4016 0.860797 49.2161
LeftLeg  17.533 14.8391 5.82316
LeftFoot  1.46145 0.66189 -5.99349
LeftToes  1.24767e-006 1.47042e-008 1.32732e-009
533
root  2.64106 40.3988 43.0912 -37.1748 -30.3014 40.8411
RightUpLeg  -1.63969 2.11964 -27.5198
RightLeg  25.1197 -15.2135 -7.86319
RightFoot  -11.3219 -0.0767007 -9.3657
RightToes  -2.08645e-008 3.77894e-005 6.81332e-007
Spine  19.2013 -0.709774 -5.42148
Spine1  -2.95745 0.375897 -18.4033
HEad  -35.5531 50.9835 -33.8996
LeftShoulder1  7.6395 -13.4192 -38.9902
LeftArm  8.71574 0.629323 -23.0069
LeftForeArm  165.622 -71.0678 -151.233
LeftHand  -0.0902753 -3.52042 1.4399
RightShoulder  3.9675 6.82905 32.5105
RightArm  -22.1467 -8.33219 23.3029
RightForeArm  31.8215 -2.93179 6.26464
RightHand  -1.06902 7.5229 -9.92085
LeftUpLeg  -37.5557 10.5508 35.7939
LeftLeg  10.0129 13.1262 5.9931
LeftFoot  1.04597 0.703067 -6.53248
LeftToes  1.24767e-006 1.47042e-008 1.32732e-009
534
root  2.75542 40.7226 43.068 -33.2734 -30.4238 39.9683
RightUpLeg  -2.94391 3.51577 -26.405
RightLeg  21.1889 -18.2929 -7.77586
RightFoot  -8.99065 0.141854 -9.80395
RightToes  -2.08645e-008 3.77894e-005 6.81332e-007
Spine  17.5997 0.102403 -5.13545
Spine1  -3.18151 1.18768 -16.5159
HEad  -33.8054 50.8318 -34.862
LeftShoulder1  7.71408 -13.479 -39.2624
LeftArm  11.6411 3.39446 -24.0241
LeftForeArm  170.21 -70.4229 -152.825
LeftHand  0.214359 -4.933 -2.09432
RightShoulder  4.0588 6.85293 33.3037
RightArm  -28.1285 -16.5338 23.2246
RightForeArm  32.6376 -6.33545 2.06304
RightHand  -0.745179 6.93125 -7.34029
LeftUpLeg  -33.6981 13.609 28.4742
LeftLeg  7.38256 12.2637 6.04425
LeftFoot  2.01445 0.717624 -6.23994
LeftToes  1.24767e-006 1.47042e-008 1.32732e-009
